<svg width="24" height="24" viewBox="0 0 24 24" fill="none" xmlns="http://www.w3.org/2000/svg">
<mask id="mask0_1_49" style="mask-type:alpha" maskUnits="userSpaceOnUse" x="0" y="0" width="24" height="24">
<rect width="24" height="24" fill="#D9D9D9"/>
</mask>
<g mask="url(#mask0_1_49)">
<path d="M12 21C11.4477 21 11 20.5523 11 20V14C11 13.4477 10.5523 13 10 13H4C3.44772 13 3 12.5523 3 12C3 11.4477 3.44772 11 4 11H10C10.5523 11 11 10.5523 11 10V4C11 3.44772 11.4477 3 12 3C12.5523 3 13 3.44772 13 4V10C13 10.5523 13.4477 11 14 11H20C20.5523 11 21 11.4477 21 12C21 12.5523 20.5523 13 20 13H14C13.4477 13 13 13.4477 13 14V20C13 20.5523 12.5523 21 12 21Z" fill="#6F6F70"/>
</g>
</svg>
