<svg width="24" height="24" viewBox="0 0 24 24" fill="none" xmlns="http://www.w3.org/2000/svg">
<mask id="mask0_1_53" style="mask-type:alpha" maskUnits="userSpaceOnUse" x="0" y="0" width="24" height="24">
<rect width="24" height="24" rx="0.7" fill="#D9D9D9"/>
</mask>
<g mask="url(#mask0_1_53)">
<path d="M6 13.3C6 13.6866 6.3134 14 6.7 14H13.3C13.6866 14 14 13.6866 14 13.3V12.7C14 12.3134 13.6866 12 13.3 12H6.7C6.3134 12 6 12.3134 6 12.7V13.3ZM6 10.3C6 10.6866 6.3134 11 6.7 11H17.3C17.6866 11 18 10.6866 18 10.3V9.7C18 9.3134 17.6866 9 17.3 9H6.7C6.3134 9 6 9.3134 6 9.7V10.3ZM6 7.3C6 7.6866 6.3134 8 6.7 8H17.3C17.6866 8 18 7.6866 18 7.3V6.7C18 6.3134 17.6866 6 17.3 6H6.7C6.3134 6 6 6.3134 6 6.7V7.3ZM3.19497 20.805C2.754 21.246 2 20.9337 2 20.3101V4C2 3.45 2.19583 2.97917 2.5875 2.5875C2.97917 2.19583 3.45 2 4 2H20C20.55 2 21.0208 2.19583 21.4125 2.5875C21.8042 2.97917 22 3.45 22 4V16C22 16.55 21.8042 17.0208 21.4125 17.4125C21.0208 17.8042 20.55 18 20 18H6.28995C6.1043 18 5.92625 18.0737 5.79497 18.205L3.19497 20.805ZM4.98161 16.1647C5.08956 16.0591 5.23456 16 5.38556 16H19.3C19.6866 16 20 15.6866 20 15.3V4.7C20 4.3134 19.6866 4 19.3 4H4V15.7518C4 16.2634 4.61591 16.5225 4.98161 16.1647Z" fill="#6F6F70" fill-opacity="0.5"/>
</g>
</svg>
