<svg width="16" height="18" viewBox="0 0 16 18" fill="none" xmlns="http://www.w3.org/2000/svg">
<path d="M2 15.3C2 15.6866 2.3134 16 2.7 16H4.3C4.6866 16 5 15.6866 5 15.3V10.7C5 10.3134 5.3134 10 5.7 10H10.3C10.6866 10 11 10.3134 11 10.7V15.3C11 15.6866 11.3134 16 11.7 16H13.3C13.6866 16 14 15.6866 14 15.3V7.35C14 7.12967 13.8963 6.9222 13.72 6.79L8.42 2.815C8.17111 2.62833 7.82889 2.62833 7.58 2.815L2.28 6.79C2.10374 6.9222 2 7.12967 2 7.35V15.3ZM0.7 18C0.3134 18 0 17.6866 0 17.3V6.35C0 6.12967 0.103736 5.9222 0.28 5.79L7.58 0.315C7.82889 0.128333 8.17111 0.128333 8.42 0.315L15.72 5.79C15.8963 5.9222 16 6.12967 16 6.35V17.3C16 17.6866 15.6866 18 15.3 18H9.7C9.3134 18 9 17.6866 9 17.3V12.7C9 12.3134 8.6866 12 8.3 12H7.7C7.3134 12 7 12.3134 7 12.7V17.3C7 17.6866 6.6866 18 6.3 18H0.7Z" fill="#6F6F70" fill-opacity="0.5"/>
</svg>
