<svg width="27" height="11" viewBox="0 0 27 11" fill="none" xmlns="http://www.w3.org/2000/svg">
<path d="M25.5223 7.70433C25.5014 7.83508 25.3813 8.1215 24.7878 8.47291C24.2027 8.81935 23.3107 9.12961 22.124 9.34463C19.7626 9.77252 16.512 9.77421 12.953 9.20457C9.39403 8.63492 6.30638 7.61875 4.19647 6.47519C3.1362 5.90053 2.38561 5.32736 1.93786 4.8156C1.48371 4.29651 1.45902 3.98692 1.47995 3.85617C1.50087 3.72542 1.62096 3.439 2.21445 3.08759C2.79955 2.74114 3.69155 2.43088 4.87821 2.21586C7.23964 1.78797 10.4902 1.78628 14.0492 2.35593C17.6082 2.92557 20.6959 3.94175 22.8058 5.0853C23.866 5.65996 24.6166 6.23313 25.0644 6.74489C25.5185 7.26399 25.5432 7.57358 25.5223 7.70433Z" stroke="white" stroke-width="2.5" stroke-linejoin="round"/>
</svg>
